# xmcd
#
# Track frame offsets:
#	150
#	15095
#	31847
#	46926
#	61780
#	79082
#	92696
#	106245
#	121284
#	137333
#	152401
#	169681
#	183566
#	197822
#	214221
#	228789
#
# Disc length: 3274 seconds
#
# Revision: 0
# Processed by: cddbd v1.5.2PL0 Copyright (c) Steve Scherf et al.
# Submitted via: audiograbber 1.83.01
#
DISCID=b90cc810
DTITLE=Various Artist - CDX 657
DYEAR=2018
DGENRE=Country
TTITLE0=LoCash - Don't Get Better Than That
TTITLE1=Luke Bryan - Most People Are Good
TTITLE2=Josh Gracin - Nothin' Like Us
TTITLE3=Dan and Shay - Tequila
TTITLE4=Alan Jackson - The Older I Get
TTITLE5=Dierks Bentley - Woman, Amen
TTITLE6=Denny Strickland - California Dreamin
TTITLE7=Ronald Dorsey - Dis Here Guitar
TTITLE8=October Rose - Heartbreak Song
TTITLE9=Preston Ary - Hide And Seek
TTITLE10=The Frontmen - If It Wasn't For the Radio
TTITLE11=James House - Leading Me Hom
TTITLE12=Kyle Daigle - Love the Leavin'
TTITLE13=Lee Grant - Ruined This Town
TTITLE14=Lynn Easterly - She Won the Loser
TTITLE15=Joe Denim ft. Rachel Holder - Together We're a Ten
EXTD=
EXTT0=
EXTT1=
EXTT2=
EXTT3=
EXTT4=
EXTT5=
EXTT6=
EXTT7=
EXTT8=
EXTT9=
EXTT10=
EXTT11=
EXTT12=
EXTT13=
EXTT14=
EXTT15=
PLAYORDER=
